<?xml version="1.0" encoding="UTF-8" standalone="no"?>
<svg width="32px" height="32px" viewBox="0 0 32 32" version="1.1" xmlns="http://www.w3.org/2000/svg" xmlns:xlink="http://www.w3.org/1999/xlink">
    <!-- Generator: sketchtool 3.8.3 (29802) - http://www.bohemiancoding.com/sketch -->
    <title>FBB540ED-AFC4-4547-9075-6A5923406C24</title>
    <desc>Created with sketchtool.</desc>
    <defs>
        <circle id="path-1" cx="6.97893831" cy="6.97893831" r="6.97893831"></circle>
    </defs>
    <g id="Mobile" stroke="none" stroke-width="1" fill="none" fill-rule="evenodd">
        <g id="추가아이콘-20160719" transform="translate(-27.000000, -20.000000)">
            <g id="문서함" transform="translate(28.000000, 21.000000)">
                <path d="M4.08214727,21.1916575 C1.88036025,21.1916575 0.0954591988,22.9822425 0.0954591988,25.1810276 L0.0954591988,25.1810276 C0.0954591988,27.3842958 1.88765394,29.1703977 4.08214727,29.1703977 L25.1087711,29.1703977 C27.3105582,29.1703977 29.0954592,27.3798126 29.0954592,25.1810276 L29.0954592,25.1810276 C29.0954592,22.9777593 27.3032645,21.1916575 25.1087711,21.1916575 L4.08214727,21.1916575 Z" id="Shape" stroke="#0665A0" stroke-width="1.5"></path>
                <path d="M29.0176313,19.9865188 L26.0009121,6.07363721 C25.7656337,4.98855062 24.6813263,4.11598375 23.577153,4.11598375 L5.70036626,4.11598375 C4.59940599,4.11598375 3.50636216,4.99245506 3.26616107,6.07363721 L0.0954591988,20.3454552 L0.152038449,20.3454552 C1.35473101,19.5383229 2.86691442,18.868236 4.05750112,18.868236 L25.2075665,18.868236 C26.528447,18.868236 28.02933,19.3867009 29.0176313,19.9865188 Z" id="Combined-Shape" stroke="#0665A0" stroke-width="1.5" stroke-linejoin="round"></path>
                <rect id="Rectangle-2" fill="#0665A0" x="3.0954592" y="24.1159837" width="2" height="2"></rect>
                <g id="docCircle" transform="translate(15.095459, 0.997204)">
                    <mask id="mask-2" fill="white">
                        <use xlink:href="#path-1"></use>
                    </mask>
                    <use id="Oval-106" stroke="#0665A0" stroke-width="2.5" xlink:href="#path-1"></use>
                    <rect id="Rectangle-1622" fill="#C03531" mask="url(#mask-2)" x="-0.00665093769" y="-0.0581575117" width="13.9578766" height="11.5043436"></rect>
                    <path d="M0.0763996805,8.03330014 C0.342193017,6.83948079 1.22198477,5.87702412 2.36722288,5.49448217 C2.29495505,5.21533026 2.25650502,4.92256561 2.25650502,4.62082049 C2.25650502,2.70116793 3.81269089,1.14498207 5.73234344,1.14498207 C7.26690684,1.14498207 8.56920243,2.13943877 9.02993913,3.51906109 C9.36643247,3.29790064 9.76914249,3.16923752 10.2019034,3.16923752 C11.3819001,3.16923752 12.3384764,4.12581381 12.3384764,5.30581048 C12.3384764,5.41389477 12.3304506,5.52010455 12.3149627,5.62387641 C13.2535993,5.84908419 13.9512257,6.69384752 13.9512257,7.70155022 C13.9512257,7.81439033 13.9424782,7.92518734 13.9256243,8.03330014 L13.9512257,8.03330014 L13.9512257,14.1126097 L-0.00665093769,14.1126097 L-0.00665093769,8.03330014 L0.0763996805,8.03330014 Z" id="Combined-Shape" fill="#FFFFFF" mask="url(#mask-2)"></path>
                    <g id="Group" mask="url(#mask-2)" fill="#463B3B">
                        <g transform="translate(2.470665, 2.938992)">
                            <path d="M2.2702167,0.0102866917 L0.00853037249,7.50732086 L1.7869248,7.50732086 C1.7869248,7.50732086 2.35851684,7.52209341 2.41905586,7.40107088 C2.47959488,7.28004835 3.42530894,4.21630303 3.42530894,4.21630303 C3.42530894,4.21630303 3.79121918,3.35532118 4.6964064,3.35532132 L5.3165697,1.26532972 C5.3165697,1.26532972 5.73989736,0.0196518522 4.07947656,0.0196518525 C2.41905577,0.0196518527 2.2702167,0.0102866917 2.2702167,0.0102866917 Z M1.76164532,6.49374284 L3.39812133,1.02301353 L3.63702748,1.02301353 C3.63702748,1.02301353 3.99086833,1.02891685 3.86315593,1.45714949 C3.73544352,1.88538212 2.45255962,6.10925204 2.45255962,6.10925204 C2.45255962,6.10925204 2.2989276,6.49374291 2.07117833,6.49374282 C1.84342907,6.49374274 1.76164532,6.49374284 1.76164532,6.49374284 Z" id="Combined-Shape"></path>
                            <path d="M5.73129511,3.54978365 C5.73129511,3.54978365 5.61566318,3.39997399 5.05377259,3.399974 C4.49188201,3.399974 3.73814789,3.64373366 3.45271001,4.5722689 C3.16727214,5.50080414 2.46935126,7.60545418 2.46935126,7.60545418 C2.46935126,7.60545418 2.0859271,8.7097956 3.38426184,8.76945983 C4.68259657,8.82912407 5.08443973,7.77264651 5.08443973,7.77264651 L5.52949207,6.3659947 C5.52949207,6.3659947 5.17528119,6.26035319 5.22029993,5.5022888 C5.26531867,4.74422441 5.73129511,3.54978365 5.73129511,3.54978365 Z M4.83353975,4.22735991 C4.83353975,4.22735991 4.60958774,4.18029456 4.51075733,4.52759728 C4.41192692,4.8749 3.60534549,7.53868933 3.60534549,7.53868933 C3.60534549,7.53868933 3.46442191,7.96595549 3.68064322,7.96595545 C3.89686454,7.96595541 3.97076596,7.79192947 4.02862706,7.63138966 C4.08648815,7.47084986 4.93570764,4.62254531 4.93570764,4.62254531 C4.93570764,4.62254531 5.04302859,4.22876378 4.8571469,4.22876378 C4.6712652,4.22876378 4.83353975,4.22735991 4.83353975,4.22735991 Z" id="Combined-Shape"></path>
                            <path d="M7.163803,4.334338 L8.29789914,4.334338 L7.98525563,5.39890006 C7.98525563,5.39890006 7.58848903,6.42610286 6.28458847,6.42610292 C4.98068791,6.42610299 5.4017529,5.0827704 5.4017529,5.0827704 L6.24488185,2.1912042 C6.24488185,2.1912042 6.50614654,1.06828093 7.86708472,1.0682809 C9.22802291,1.06828088 8.97377576,2.0951841 8.97377576,2.0951841 L8.73258923,2.90202769 L7.60327004,2.90202769 L7.8243564,2.22439295 C7.8243564,2.22439295 7.96370422,1.86965545 7.6705744,1.86965547 C7.37744457,1.86965548 7.18792665,2.75993291 7.18792665,2.75993291 L6.45257995,5.19669595 C6.45257995,5.19669595 6.3065145,5.61206716 6.53876081,5.61206719 C6.77100712,5.61206723 6.83798394,5.48575531 6.94963696,5.10067584 C7.06128998,4.71559638 7.163803,4.334338 7.163803,4.334338 Z" id="Path-1040"></path>
                        </g>
                    </g>
                </g>
            </g>
        </g>
    </g>
</svg>