<?xml version="1.0" encoding="UTF-8" standalone="no"?>
<svg width="34px" height="34px" viewBox="0 0 34 34" version="1.1" xmlns="http://www.w3.org/2000/svg" xmlns:xlink="http://www.w3.org/1999/xlink">
    <!-- Generator: sketchtool 3.8.3 (29802) - http://www.bohemiancoding.com/sketch -->
    <title>4BDCC0A5-123E-4048-902B-B6A3EE9ED017</title>
    <desc>Created with sketchtool.</desc>
    <defs></defs>
    <g id="Mobile" stroke="none" stroke-width="1" fill="none" fill-rule="evenodd" stroke-linejoin="round">
        <g id="추가아이콘-20160719" transform="translate(-26.000000, -140.000000)" stroke="#0665A0" stroke-width="1.3">
            <g id="RECYCLER" transform="translate(28.000000, 141.000000)">
                <g id="Group-6" transform="translate(0.848437, 0.000000)">
                    <rect id="Rectangle-1625" x="6.97169349" y="0.787151544" width="13.7534864" height="3"></rect>
                    <rect id="Rectangle-1625-Copy" x="0.00666795038" y="3.78715154" width="27.6835375" height="3"></rect>
                    <path d="M2.11015239,6.78715154 L25.586721,6.78715154 L23.8400224,27.45729 C23.7001279,29.1127779 22.2480176,30.454816 20.5861906,30.454816 L7.11068278,30.454816 C5.45353561,30.454816 3.99689332,29.1145271 3.85685101,27.45729 L2.11015239,6.78715154 Z" id="Rectangle-1625-Copy-2"></path>
                    <g id="Group-5" transform="translate(8.000000, 12.000000)" stroke-linecap="round">
                        <g id="Group-4" transform="translate(0.000000, 5.000000)">
                            <path d="M4.03201864,6.03822758 L2.0101428,6.03822758 C0.906501075,6.03822758 0.457812697,5.26256792 1.00809677,4.30552148 L2.90676258,1.00338818" id="Path-1049"></path>
                            <polyline id="Path-1050" points="0.945795159 1.44430004 2.90527342 0.956970215 3.64581309 2.66448975"></polyline>
                        </g>
                        <g id="Group-4-Copy" transform="translate(6.960751, 3.985476) rotate(-240.000000) translate(-6.960751, -3.985476) translate(4.460751, 0.485476)">
                            <path d="M4.03201864,6.03822758 L2.0101428,6.03822758 C0.906501075,6.03822758 0.457812697,5.26256792 1.00809677,4.30552148 L2.90676258,1.00338818" id="Path-1049"></path>
                            <polyline id="Path-1050" points="0.945795159 1.44430004 2.90527342 0.956970215 3.64581309 2.66448975"></polyline>
                        </g>
                        <g id="Group-4-Copy-2" transform="translate(8.648127, 10.136493) rotate(-120.000000) translate(-8.648127, -10.136493) translate(6.148127, 6.636493)">
                            <path d="M4.03201864,6.03822758 L2.0101428,6.03822758 C0.906501075,6.03822758 0.457812697,5.26256792 1.00809677,4.30552148 L2.90676258,1.00338818" id="Path-1049"></path>
                            <polyline id="Path-1050" points="0.945795159 1.44430004 2.90527342 0.956970215 3.64581309 2.66448975"></polyline>
                        </g>
                    </g>
                </g>
            </g>
        </g>
    </g>
</svg>