<?xml version="1.0" encoding="UTF-8" standalone="no"?>
<svg width="36px" height="36px" viewBox="0 0 36 36" version="1.1" xmlns="http://www.w3.org/2000/svg" xmlns:xlink="http://www.w3.org/1999/xlink">
    <!-- Generator: sketchtool 3.8.3 (29802) - http://www.bohemiancoding.com/sketch -->
    <title>C2FECFC7-1952-4AA6-A102-130D304F749E</title>
    <desc>Created with sketchtool.</desc>
    <defs></defs>
    <g id="Mobile" stroke="none" stroke-width="1" fill="none" fill-rule="evenodd">
        <g id="추가아이콘-20160719" transform="translate(-25.000000, -59.000000)">
            <g id="DOC_EXPORT" transform="translate(24.000000, 62.000000)">
                <g id="folder_icon-copy-14" transform="translate(0.971313, 0.000000)">
                    <path d="M33.1628038,3.52656868 L13.3583946,3.52656868 C13.1235161,3.52656868 12.9674958,3.08140192 12.7555116,2.40390051 C12.455342,1.44657999 12.0042397,0 10.4177501,0 L2.83804409,0 C1.76540418,0 0.899660825,0.841153194 0.866591295,1.93329565 L0.864895421,28.0251555 C0.864895421,29.1147541 1.75098926,30 2.83804409,30 L33.1628038,30 C34.2498587,30 35.1351046,29.1147541 35.1351046,28.0251555 L35.1351046,5.50056529 C35.1351046,4.41181458 34.2498587,3.52656868 33.1628038,3.52656868 L33.1628038,3.52656868 Z" id="Path" fill="#0665A0"></path>
                    <path d="M33.8623516,8.00197852 L2.13849633,8.00197852 L2.13849633,1.95195025 C2.15036744,1.57037875 2.45816846,1.27190503 2.83804409,1.27190503 L10.4177501,1.27190503 C11.0070661,1.27190503 11.2122668,1.73233465 11.5404183,2.78292821 C11.8066704,3.63340871 12.1712832,4.79847371 13.3583946,4.79847371 L33.1628038,4.79847371 C33.548615,4.79847371 33.8623516,5.11305822 33.8623516,5.50056529 L33.8623516,8.00197852 L33.8623516,8.00197852 Z" id="Path" fill="#CFEDFF"></path>
                    <path d="M33.8623516,28.0251555 C33.8623516,28.4126625 33.548615,28.728095 33.1628038,28.728095 L2.83804409,28.728095 C2.4522329,28.728095 2.13680045,28.4126625 2.13680045,28.0251555 L2.13849633,9.27388355 L33.8623516,9.27388355 L33.8623516,28.0251555 L33.8623516,28.0251555 Z" id="Path" fill="#CFEDFF"></path>
                </g>
                <path d="M26.4053097,22.863961 L26.4053097,26.7279221 L32.7692707,20.363961 L26.4053097,14 L26.4053097,17.863961 L19.9053097,17.863961 L19.9053097,22.863961 L26.4053097,22.863961 Z" id="Combined-Shape" stroke="#0665A0" stroke-linecap="round" stroke-linejoin="round" fill="#50E58F"></path>
            </g>
        </g>
    </g>
</svg>